<svg id="visual" viewBox="0 0 900 600" width="900" height="600" xmlns="http://www.w3.org/2000/svg" xmlns:xlink="http://www.w3.org/1999/xlink" version="1.1"><rect x="0" y="0" width="900" height="600" fill="#001220"></rect><defs><linearGradient id="grad1_0" x1="33.3%" y1="0%" x2="100%" y2="100%"><stop offset="20%" stop-color="#001220" stop-opacity="1"></stop><stop offset="80%" stop-color="#001220" stop-opacity="1"></stop></linearGradient></defs><defs><linearGradient id="grad2_0" x1="0%" y1="0%" x2="66.7%" y2="100%"><stop offset="20%" stop-color="#001220" stop-opacity="1"></stop><stop offset="80%" stop-color="#001220" stop-opacity="1"></stop></linearGradient></defs><g transform="translate(900, 0)"><path d="M0 378.6C-70.5 371.1 -140.9 363.7 -189.3 327.9C-237.7 292 -264 227.9 -291.9 168.5C-319.7 109.1 -349.2 54.6 -378.6 0L0 0Z" fill="#6A64F1"></path></g><g transform="translate(0, 600)"><path d="M0 -378.6C58.3 -355.6 116.6 -332.7 175.5 -304C234.4 -275.3 293.9 -240.9 327.9 -189.3C361.8 -137.7 370.2 -68.8 378.6 0L0 0Z" fill="#6A64F1"></path></g></svg>